<?xml version="1.0" encoding="UTF-8"?>
<svg id="Layer_1" data-name="Layer 1" xmlns="http://www.w3.org/2000/svg" viewBox="0 0 800 800">
  <defs>
    <style>
      .cls-1 {
        fill: #fff;
        stroke-width: 0px;
      }
    </style>
  </defs>
  <g>
    <g>
      <g>
        <path class="cls-1" d="m75.65,530.44c-1.2,0-2.11.96-2.11,2.12s.91,2.12,2.11,2.12,2.11-.96,2.11-2.12-.95-2.12-2.11-2.12Z"/>
        <path class="cls-1" d="m154.67,530.44c-1.2,0-2.11.96-2.11,2.12s.91,2.12,2.11,2.12,2.11-.96,2.11-2.12-.95-2.12-2.11-2.12Z"/>
        <polygon class="cls-1" points="12.85 553.96 30.41 553.96 30.41 549.92 17.08 549.92 17.08 544.18 26.39 544.18 26.39 540.14 17.08 540.14 17.08 534.98 30.41 534.98 30.41 530.94 12.85 530.94 12.85 553.96"/>
        <path class="cls-1" d="m42.54,535.77c-2.4,0-4.35,1.04-5.42,2.71h-.04v-2.25h-3.81v17.74h3.81v-9.91c0-2.91,1.86-4.5,4.31-4.5s4.22,1.33,4.22,4.54v9.87h3.77v-10.7c0-4.41-3.15-7.49-6.83-7.49Z"/>
        <path class="cls-1" d="m66.34,538.31h-.04c-1.24-1.62-3.15-2.54-5.51-2.54-4.72,0-9.03,3.33-9.03,9.16s4.02,9.03,8.57,9.03c2.61,0,4.43-.96,6.01-2.75v1.17c0,2.7-1.95,5.24-5.8,5.24-1.82,0-3.44-1.17-4.18-2.2l-3.11,2.29c2.03,2.5,5.01,3.5,7.45,3.5,4.76,0,9.23-3.37,9.23-9.24v-15.73h-3.6v2.08Zm-5.22,12.07c-3.23,0-5.34-2.46-5.34-5.54s2.36-5.49,5.34-5.49,5.22,2.46,5.22,5.54-2.15,5.49-5.22,5.49Z"/>
        <rect class="cls-1" x="73.75" y="536.23" width="3.77" height="17.73"/>
        <path class="cls-1" d="m90.6,535.77c-2.4,0-4.35,1.04-5.42,2.71h-.04v-2.25h-3.81v17.74h3.81v-9.91c0-2.91,1.86-4.5,4.31-4.5s4.22,1.33,4.22,4.54v9.87h3.77v-10.7c0-4.41-3.15-7.49-6.83-7.49Z"/>
        <path class="cls-1" d="m109.84,535.77c-6.13,0-9.73,4.62-9.73,9.33s3.6,9.32,9.73,9.32c3.19,0,6.09-1.62,8.2-4.29l-3.19-1.83c-1.32,1.79-3.06,2.75-5.09,2.75-2.65,0-5.18-1.91-5.38-4.62h14.62v-.71c0-6.91-5.47-9.95-9.15-9.95Zm-5.47,7.49c.58-2.62,2.57-4.12,4.97-4.12s4.43,1.42,5.22,4.12h-10.19Z"/>
        <path class="cls-1" d="m130.42,535.77c-6.13,0-9.73,4.62-9.73,9.33s3.6,9.32,9.73,9.32c3.19,0,6.09-1.62,8.2-4.29l-3.19-1.83c-1.32,1.79-3.06,2.75-5.09,2.75-2.65,0-5.18-1.91-5.38-4.62h14.62v-.71c0-6.91-5.47-9.95-9.15-9.95Zm-5.47,7.49c.58-2.62,2.57-4.12,4.97-4.12s4.43,1.42,5.22,4.12h-10.19Z"/>
        <path class="cls-1" d="m145.94,538.18h-.08v-1.96h-3.56v17.73h3.81v-11.74c0-1.58,1.24-2.66,2.61-2.66.37,0,1.03.21,1.41.5l1.37-3.75c-.5-.33-1.24-.54-2.07-.54-1.53,0-2.86.96-3.48,2.41Z"/>
        <rect class="cls-1" x="152.77" y="536.23" width="3.77" height="17.73"/>
        <path class="cls-1" d="m169.62,535.77c-2.4,0-4.35,1.04-5.42,2.71h-.04v-2.25h-3.81v17.74h3.81v-9.91c0-2.91,1.86-4.5,4.31-4.5s4.22,1.33,4.22,4.54v9.87h3.77v-10.7c0-4.41-3.15-7.49-6.83-7.49Z"/>
        <path class="cls-1" d="m193.42,538.31h-.04c-1.24-1.62-3.15-2.54-5.51-2.54-4.72,0-9.03,3.33-9.03,9.16s4.02,9.03,8.57,9.03c2.61,0,4.43-.96,6-2.75v1.17c0,2.7-1.95,5.24-5.8,5.24-1.82,0-3.44-1.17-4.18-2.2l-3.11,2.29c2.03,2.5,5.01,3.5,7.45,3.5,4.76,0,9.23-3.37,9.23-9.24v-15.73h-3.6v2.08Zm-5.22,12.07c-3.23,0-5.34-2.46-5.34-5.54s2.36-5.49,5.34-5.49,5.22,2.46,5.22,5.54-2.15,5.49-5.22,5.49Z"/>
        <path class="cls-1" d="m217.8,534.52c2.57,0,4.8,1.21,6.25,3.33l3.48-2.66c-2.53-3.2-6.09-4.7-9.73-4.7-6.88,0-12.3,5.24-12.3,11.99s5.42,11.95,12.3,11.95c3.64,0,7.2-1.5,9.73-4.71l-3.39-2.5c-1.45,2-3.77,3.21-6.34,3.21-4.14,0-7.87-3.5-7.87-7.95s3.73-7.95,7.87-7.95Z"/>
        <path class="cls-1" d="m238.34,535.77c-6.13,0-9.73,4.62-9.73,9.33s3.6,9.33,9.73,9.33,9.73-4.62,9.73-9.33-3.56-9.33-9.73-9.33Zm0,15.07c-3.31,0-5.72-2.54-5.72-5.74s2.4-5.74,5.72-5.74,5.75,2.54,5.75,5.74-2.44,5.74-5.75,5.74Z"/>
        <path class="cls-1" d="m259.78,535.77c-2.4,0-4.35,1.04-5.42,2.71h-.04v-2.25h-3.81v17.74h3.81v-9.91c0-2.91,1.86-4.5,4.31-4.5s4.22,1.33,4.22,4.54v9.87h3.77v-10.7c0-4.41-3.15-7.49-6.83-7.49Z"/>
        <path class="cls-1" d="m279.4,543.72l-3.81-.71c-1.45-.25-2.32-.79-2.32-1.87,0-1.42,1.62-2.25,3.27-2.25,1.24,0,2.86.42,4.72,2l2.16-2.66c-2.4-1.75-4.56-2.46-7-2.46-4.39,0-6.91,2.79-6.91,5.79,0,2.5,1.37,4.12,6.33,5.04l2.15.42c1.37.25,2.28.88,2.28,2.04,0,1-1.28,2.25-3.47,2.25-1.99,0-4.18-1.17-5.55-2.62l-2.57,2.67c2.4,2.04,4.93,3.08,7.91,3.08,5.38,0,7.5-3.37,7.5-5.96s-1.53-4.12-4.68-4.74Z"/>
        <path class="cls-1" d="m298.44,546.18c0,2.58-1.91,4.45-4.26,4.45s-4.26-1.87-4.26-4.45v-9.95h-3.81v10.24c0,5,3.85,7.95,8.07,7.95s8.03-2.95,8.03-7.95v-10.24h-3.77v9.95Z"/>
        <path class="cls-1" d="m309.78,546.8v-15.86h-3.77v16.57c0,3.7,1.82,5.08,5.71,6.91l1.66-3-2.03-1.17c-1.12-.67-1.57-1.37-1.57-3.45Z"/>
        <path class="cls-1" d="m318.68,546.8v-6.99h3.02v-3.58h-3.02v-5.74l-3.81,1.04v4.7h-2.15v3.58h2.15v7.7c0,3.7,1.82,5.08,5.72,6.91l1.7-3-2.03-1.17c-1.16-.67-1.57-1.54-1.57-3.45Z"/>
        <path class="cls-1" d="m337.73,538.39h-.08c-.99-1.5-2.98-2.62-5.59-2.62-5.72,0-9.36,4.95-9.36,9.33s3.35,9.33,9.15,9.33c2.4,0,4.6-1,5.8-2.62h.08v2.16h3.77v-17.73h-3.77v2.17Zm-5.38,12.45c-3.07,0-5.63-2.54-5.63-5.74s2.57-5.74,5.63-5.74,5.51,2.54,5.51,5.74-2.52,5.74-5.51,5.74Z"/>
        <path class="cls-1" d="m354.53,535.77c-2.4,0-4.35,1.04-5.42,2.71h-.04v-2.25h-3.81v17.74h3.81v-9.91c0-2.91,1.86-4.5,4.31-4.5s4.23,1.33,4.23,4.54v9.87h3.77v-10.7c0-4.41-3.15-7.49-6.83-7.49Z"/>
        <path class="cls-1" d="m373.49,539.35c2.15,0,3.6,1.08,4.6,2.66l3.31-1.96c-1.7-2.5-4.14-4.29-7.91-4.29-6.13,0-9.73,4.62-9.73,9.32s3.6,9.33,9.73,9.33c3.35,0,6.33-1.79,7.91-4.29l-3.31-1.96c-.99,1.62-2.48,2.66-4.6,2.66-3.31,0-5.72-2.54-5.72-5.74s2.4-5.74,5.72-5.74Z"/>
        <path class="cls-1" d="m389.51,550.26c-1.16-.67-1.57-1.54-1.57-3.45v-6.99h3.02v-3.58h-3.02v-5.74l-3.81,1.04v4.7h-2.15v3.58h2.15v7.7c0,3.7,1.82,5.08,5.71,6.91l1.7-3-2.03-1.17Z"/>
      </g>
      <g>
        <path class="cls-1" d="m15.4,518.93c1.1.74,2.07,1.24,2.99,1.43.83.14,2.76.23,5.66.23h82.62v-19.14h-4.32v14.82h-4.74v-14.82h-4.28v14.82h-4.92v-14.82h-4.32v14.82h-25.02v-14.82h-4.32v14.82h-26.91v-14.82h-3.68c-1.38,0-2.62,0-3.96.05-2.16.05-4.14.92-5.84,2.58-1.93,1.89-2.9,4.14-2.9,6.81,0,3.5,1.33,6.17,3.96,8.05Zm1.98-11.69c1.01-.96,2.39-1.47,4.14-1.47h2.02v10.49h-1.93c-1.34,0-2.35-.14-2.94-.42-1.93-.92-2.85-2.53-2.85-4.83,0-1.56.46-2.81,1.56-3.77Z"/>
        <path class="cls-1" d="m22.58,497.17c.69,0,1.29-.28,1.79-.78.51-.46.78-1.06.78-1.7,0-.74-.28-1.29-.78-1.75-.5-.41-1.1-.69-1.84-.69-.69,0-1.29.28-1.8.78-.5.41-.73,1.01-.73,1.66s.23,1.24.73,1.7c.51.51,1.11.78,1.84.78Z"/>
        <path class="cls-1" d="m16.55,497.17c.74,0,1.38-.28,1.89-.78.46-.46.69-1.06.69-1.7,0-.74-.23-1.29-.74-1.75-.51-.41-1.15-.69-1.84-.69s-1.34.28-1.84.69c-.5.46-.73,1.01-.73,1.75,0,.64.23,1.24.73,1.7.51.51,1.15.78,1.84.78Z"/>
        <path class="cls-1" d="m46.75,522.13c-.69,0-1.29.28-1.75.74-.51.46-.78,1.01-.78,1.7,0,.64.28,1.29.78,1.7.51.51,1.1.78,1.79.78.74,0,1.34-.28,1.84-.78.51-.41.74-1.06.74-1.7,0-.69-.23-1.24-.74-1.7-.51-.46-1.11-.74-1.89-.74Z"/>
        <path class="cls-1" d="m43.34,524.57c0-.69-.23-1.24-.74-1.7-.5-.46-1.1-.74-1.88-.74-.65,0-1.24.28-1.75.74-.51.46-.78,1.01-.78,1.7,0,.64.28,1.29.78,1.7.5.51,1.1.78,1.79.78.74,0,1.34-.27,1.84-.78.51-.41.74-1.06.74-1.7Z"/>
        <path class="cls-1" d="m135.04,497.17c.69,0,1.29-.28,1.79-.74.51-.5.78-1.1.78-1.75s-.28-1.29-.78-1.75c-.5-.41-1.1-.69-1.84-.69-.69,0-1.29.28-1.8.78-.5.41-.74,1.01-.74,1.66s.23,1.24.74,1.75c.51.46,1.11.74,1.84.74Z"/>
        <path class="cls-1" d="m128.38,520.59h17.52c.64,0,1.15-.14,1.57-.51.41.37.96.51,1.56.51h21.71v-28.34h-4.32v24.02h-5.06v-5.11c0-3.41-1.29-6.12-3.96-7.96-1.1-.83-2.21-1.33-3.36-1.52-.74-.18-1.93-.23-3.73-.23h-8.24v4.32h9.02c1.61,0,2.94.27,3.86.96,1.38,1.01,2.12,2.85,2.12,5.61v3.91h-4.51c.23-.64.32-1.29.32-1.89,0-1.57-.51-2.9-1.56-3.96-1.06-1.06-2.3-1.61-3.82-1.61s-2.85.55-3.91,1.66c-1.06,1.1-1.56,2.48-1.56,4.1,0,.64.14,1.29.46,1.7h-5.24v-14.82h-4.28v14.82h-6.94c1.06-1.89,1.56-3.64,1.56-5.2,0-2.76-1.01-5.11-3.04-7.04-1.84-1.7-4.46-2.58-7.87-2.58h-4.42v4.32h5.29c1.66,0,2.99.51,4.05,1.47,1.06.97,1.56,2.21,1.56,3.77,0,1.89-.74,3.31-2.11,4.37-.87.6-2.12.88-3.87.88h-7.78v4.32h18.96Zm17.57-7.91c.46-.46.97-.64,1.56-.64.55,0,1.06.18,1.52.64.46.41.65.92.65,1.52,0,.64-.19,1.15-.65,1.56-.46.46-.97.69-1.52.69-.6,0-1.1-.23-1.56-.6-.46-.46-.69-.97-.69-1.66,0-.6.23-1.11.69-1.52Z"/>
        <rect class="cls-1" x="173.5" y="492.25" width="4.28" height="28.34"/>
        <path class="cls-1" d="m204.14,497.17c.69,0,1.34-.28,1.84-.78.5-.46.74-1.06.74-1.7s-.23-1.24-.74-1.66c-.6-.51-1.2-.78-1.89-.78-.74,0-1.33.28-1.84.69-.46.46-.69,1.01-.69,1.75,0,.64.23,1.24.69,1.7.51.51,1.1.78,1.89.78Z"/>
        <path class="cls-1" d="m223.92,501.45h-4.28v14.82h-19.78c-1.65,0-2.81-.05-3.45-.18-1.24-.32-2.21-.96-2.85-1.93-.6-.83-.92-2.16-.92-3.82v-4.92h-4.28v4.14c0,1.79.05,2.99.19,3.73.18,1.15.73,2.3,1.47,3.36,1.93,2.62,4.6,3.96,8.05,3.96h25.86v-19.14Z"/>
        <path class="cls-1" d="m210.12,497.17c.69,0,1.29-.28,1.79-.78.51-.46.78-1.06.78-1.7,0-.74-.28-1.29-.78-1.75-.5-.41-1.1-.69-1.84-.69-.69,0-1.29.28-1.8.78-.5.41-.73,1.01-.73,1.66s.23,1.24.73,1.7c.51.51,1.11.78,1.84.78Z"/>
        <rect class="cls-1" x="227.54" y="492.25" width="4.28" height="28.34"/>
        <path class="cls-1" d="m230.95,530.9c1.56-.23,3.13-.87,4.79-1.93,1.61-1.06,2.9-2.3,3.68-3.63,1.2-1.84,1.75-3.96,1.75-6.35v-17.53h-4.32v15c0,3.73-.78,6.4-2.39,7.96-.78.78-1.93,1.52-3.5,2.16v4.32Z"/>
        <path class="cls-1" d="m283.86,497.17c.73,0,1.33-.28,1.84-.78.5-.46.74-1.06.74-1.7,0-.74-.23-1.29-.74-1.75-.51-.41-1.11-.69-1.89-.69-.64,0-1.24.28-1.75.78-.51.41-.78,1.01-.78,1.66s.28,1.24.78,1.7c.5.51,1.1.78,1.79.78Z"/>
        <path class="cls-1" d="m287.31,494.69c0,.64.28,1.24.78,1.7.51.51,1.1.78,1.79.78.74,0,1.34-.27,1.84-.78.51-.46.74-1.06.74-1.7,0-.74-.23-1.29-.74-1.75-.51-.42-1.1-.69-1.89-.69-.69,0-1.33.27-1.75.69-.51.46-.78,1.01-.78,1.75Z"/>
        <path class="cls-1" d="m286.89,491.88c.6,0,1.1-.18,1.56-.6.46-.46.69-.97.69-1.52,0-.6-.23-1.1-.69-1.52-.46-.41-.96-.6-1.61-.6-.6,0-1.11.18-1.57.6-.42.42-.6.92-.6,1.52,0,.55.18,1.06.65,1.52.46.41.97.6,1.56.6Z"/>
        <polygon class="cls-1" points="298.49 520.59 314.67 520.59 314.86 520.59 329.39 520.59 329.67 520.59 360.26 520.59 360.26 501.45 355.94 501.45 355.94 516.27 351.2 516.27 351.2 501.45 346.92 501.45 346.92 516.27 342 516.27 342 501.45 337.67 501.45 337.67 516.27 329.67 516.27 329.39 516.27 329.16 516.27 329.16 501.45 324.84 501.45 324.84 516.27 314.86 516.27 314.67 516.27 298.49 516.27 298.16 516.27 297.93 516.27 297.93 501.45 293.61 501.45 293.61 516.27 288.87 516.27 288.87 501.45 284.59 501.45 284.59 516.27 279.67 516.27 279.67 501.45 275.34 501.45 275.34 516.27 267.25 516.27 267.06 516.27 250.82 516.27 250.55 516.27 250.32 516.27 250.32 492.25 246.04 492.25 246.04 520.59 250.55 520.59 250.82 520.59 267.06 520.59 267.25 520.59 298.16 520.59 298.49 520.59"/>
        <path class="cls-1" d="m320.97,497.17c.74,0,1.34-.28,1.84-.78.5-.46.78-1.06.78-1.7,0-.74-.28-1.29-.78-1.75-.51-.41-1.1-.69-1.89-.69-.69,0-1.29.28-1.75.69-.51.46-.78,1.01-.78,1.75,0,.64.27,1.24.78,1.7.5.51,1.1.78,1.79.78Z"/>
        <path class="cls-1" d="m327,497.17c.74,0,1.33-.28,1.84-.78.51-.46.74-1.06.74-1.7s-.23-1.24-.74-1.66c-.55-.51-1.15-.78-1.89-.78-.69,0-1.29.28-1.75.69-.51.46-.78,1.01-.78,1.75,0,.64.28,1.24.78,1.7.46.51,1.1.78,1.79.78Z"/>
        <polygon class="cls-1" points="390.57 492.25 386.25 492.25 386.25 516.26 381.79 516.26 381.51 516.26 381.28 516.26 381.28 492.25 376.91 492.25 376.91 516.26 372.08 516.26 372.08 501.45 367.75 501.45 367.75 516.26 363.01 516.26 363.01 520.59 381.51 520.59 381.79 520.59 390.57 520.59 390.57 492.25"/>
      </g>
    </g>
    <g>
      <path class="cls-1" d="m59.95,477.35H12.28v-120.91h47.66c33.33,0,60.45,27.12,60.45,60.45s-27.12,60.45-60.45,60.45Zm-24.21-23.45h24.21c20.4,0,37-16.6,37-37s-16.6-37-37-37h-24.21v74.01Z"/>
      <polygon class="cls-1" points="252.8 356.44 198.12 414.98 144.1 356.44 131.47 356.44 131.47 477.35 154.43 477.35 154.43 404.94 198.02 452.17 242.38 404.68 242.38 477.35 265.34 477.35 265.34 356.44 252.8 356.44"/>
    </g>
    <path class="cls-1" d="m398.59,438.19l-23.65-9.75c-1.82,4.43-4.48,8.4-7.89,11.82-6.84,6.83-15.93,10.6-25.59,10.6-19.96,0-36.2-16.24-36.2-36.2s16.24-36.2,36.2-36.2c10.8,0,20.96,4.77,27.87,13.09l19.68-16.34c-11.79-14.19-29.11-22.33-47.55-22.33-34.06,0-61.78,27.72-61.78,61.78s27.72,61.78,61.78,61.78c16.5,0,32.02-6.43,43.68-18.1h0c5.81-5.81,10.34-12.59,13.45-20.16Z"/>
  </g>
  <g>
    <rect class="cls-1" x="701.35" y="383.95" width="11.36" height="11.36"/>
    <path class="cls-1" d="m525.29,440.42c4,8.6,7.27,18.02,9.65,27.58-1.95-9.74-5.23-18.99-9.65-27.58Z"/>
    <path class="cls-1" d="m535.05,468.48c.05.2.09.4.14.6-.04-.2-.1-.4-.14-.6Z"/>
    <polygon class="cls-1" points="522.63 367.79 522.63 377.98 522.63 381.63 558.92 381.63 558.92 377.98 558.92 367.79 558.92 364.13 522.63 364.13 522.63 367.79"/>
    <path class="cls-1" d="m774.89,532.7c-7.54,0-13.67,6.13-13.67,13.67s6.13,13.67,13.67,13.67,13.67-6.13,13.67-13.67-6.13-13.67-13.67-13.67Z"/>
    <path class="cls-1" d="m737.16,359.34v-68.91h-73.85c-15.64-30.63-47.38-51.64-83.92-51.64-51.97,0-94.26,42.52-94.26,94.78v35.23c-16.65-7.6-35.13-11.87-54.6-11.87h-12.59l-2.53,202.95,25.5.32,2.2-177.03c15.24,1.8,29.44,6.91,42.02,14.47v162.4h51.91s25.5,0,25.5,0h0v-71.09c0-43.33-20.98-81.84-53.32-105.93v-49.45c0-38.9,31.47-70.55,70.16-70.55,22.55,0,42.64,10.75,55.49,27.41h-38.33v268.97h77.1v-225.83c0-6.47-.65-12.8-1.88-18.91h41.3v44.68h-33.11v60.58h57.2v-36.36h26v140.83h24.09v-165.06h-50.1Zm-211.87,81.08c4.42,8.59,7.7,17.84,9.65,27.58.04.16.07.32.11.47.04.2.1.4.14.6,1.22,6.44,1.86,13.08,1.86,19.87v46.86h-27.82v-118.52c6.32,6.94,11.73,14.71,16.06,23.13Zm124.27,94.75h-28.91v-220.51h26.35c1.67,6.02,2.56,12.36,2.56,18.91v201.6Zm68.36-134.66h-21.76v-21.76h21.76v21.76Z"/>
  </g>
  <rect class="cls-1" x="611.91" y="333" width="46.94" height="11.06"/>
  <rect class="cls-1" x="611.91" y="357.01" width="46.94" height="11.05"/>
  <rect class="cls-1" x="611.91" y="381.02" width="46.94" height="11.05"/>
  <rect class="cls-1" x="611.91" y="405.03" width="46.94" height="11.05"/>
  <rect class="cls-1" x="611.91" y="439.9" width="46.94" height="11.05"/>
  <rect class="cls-1" x="611.91" y="463.9" width="46.94" height="11.05"/>
  <rect class="cls-1" x="611.91" y="487.91" width="46.94" height="11.06"/>
  <rect class="cls-1" x="611.91" y="511.92" width="46.94" height="11.05"/>
  <rect class="cls-1" x="503.03" y="439.9" width="43.01" height="11.05"/>
  <rect class="cls-1" x="503.03" y="463.9" width="43.01" height="11.05"/>
  <rect class="cls-1" x="503.03" y="487.91" width="43.01" height="11.06"/>
  <rect class="cls-1" x="503.03" y="511.92" width="43.01" height="11.05"/>
</svg>