<?xml version="1.0" encoding="UTF-8"?>
<svg id="Layer_1" data-name="Layer 1" xmlns="http://www.w3.org/2000/svg" viewBox="0 0 800 800">
  <defs>
    <style>
      .cls-1 {
        fill: #fff;
        stroke-width: 0px;
      }
    </style>
  </defs>
  <g>
    <g>
      <g>
        <g>
          <path class="cls-1" d="m94.17,493.18c-1.51,0-2.66,1.21-2.66,2.68s1.15,2.68,2.66,2.68,2.66-1.21,2.66-2.68-1.2-2.68-2.66-2.68Z"/>
          <path class="cls-1" d="m193.8,493.18c-1.51,0-2.66,1.21-2.66,2.68s1.15,2.68,2.66,2.68,2.66-1.21,2.66-2.68-1.2-2.68-2.66-2.68Z"/>
          <polygon class="cls-1" points="15 522.83 37.13 522.83 37.13 517.74 20.33 517.74 20.33 510.5 32.07 510.5 32.07 505.41 20.33 505.41 20.33 498.9 37.13 498.9 37.13 493.81 15 493.81 15 522.83"/>
          <path class="cls-1" d="m52.42,499.9c-3.03,0-5.48,1.31-6.84,3.41h-.05v-2.84h-4.8v22.36h4.8v-12.49c0-3.67,2.35-5.67,5.43-5.67s5.32,1.68,5.32,5.72v12.44h4.75v-13.49c0-5.56-3.97-9.45-8.62-9.45Z"/>
          <path class="cls-1" d="m82.43,503.1h-.05c-1.57-2.05-3.97-3.2-6.94-3.2-5.95,0-11.38,4.2-11.38,11.55s5.06,11.39,10.81,11.39c3.29,0,5.59-1.21,7.57-3.46v1.47c0,3.41-2.45,6.61-7.31,6.61-2.3,0-4.33-1.47-5.27-2.78l-3.92,2.89c2.56,3.15,6.31,4.41,9.39,4.41,6,0,11.64-4.25,11.64-11.65v-19.84h-4.54v2.63Zm-6.58,15.22c-4.07,0-6.73-3.1-6.73-6.98s2.98-6.93,6.73-6.93,6.58,3.1,6.58,6.98-2.71,6.93-6.58,6.93Z"/>
          <rect class="cls-1" x="91.77" y="500.48" width="4.75" height="22.36"/>
          <path class="cls-1" d="m113.01,499.9c-3.03,0-5.48,1.31-6.84,3.41h-.05v-2.84h-4.8v22.36h4.8v-12.49c0-3.67,2.35-5.67,5.43-5.67s5.32,1.68,5.32,5.72v12.44h4.75v-13.49c0-5.56-3.97-9.45-8.62-9.45Z"/>
          <path class="cls-1" d="m137.28,499.9c-7.73,0-12.27,5.83-12.27,11.76s4.54,11.75,12.27,11.75c4.02,0,7.67-2.04,10.34-5.41l-4.02-2.31c-1.67,2.26-3.86,3.46-6.42,3.46-3.34,0-6.53-2.41-6.79-5.83h18.43v-.89c0-8.71-6.89-12.54-11.54-12.54Zm-6.89,9.45c.73-3.31,3.24-5.2,6.27-5.2s5.58,1.78,6.58,5.2h-12.84Z"/>
          <path class="cls-1" d="m163.22,499.9c-7.73,0-12.27,5.83-12.27,11.76s4.54,11.75,12.27,11.75c4.02,0,7.67-2.04,10.34-5.41l-4.02-2.31c-1.67,2.26-3.86,3.46-6.42,3.46-3.34,0-6.53-2.41-6.79-5.83h18.43v-.89c0-8.71-6.89-12.54-11.54-12.54Zm-6.89,9.45c.73-3.31,3.24-5.2,6.27-5.2s5.58,1.78,6.58,5.2h-12.84Z"/>
          <path class="cls-1" d="m182.79,502.94h-.1v-2.47h-4.49v22.36h4.8v-14.8c0-1.99,1.57-3.36,3.29-3.36.47,0,1.3.26,1.77.63l1.72-4.72c-.63-.42-1.57-.68-2.61-.68-1.93,0-3.6,1.21-4.38,3.04Z"/>
          <rect class="cls-1" x="191.4" y="500.48" width="4.75" height="22.36"/>
          <path class="cls-1" d="m212.64,499.9c-3.03,0-5.48,1.31-6.84,3.41h-.05v-2.84h-4.8v22.36h4.8v-12.49c0-3.67,2.35-5.67,5.43-5.67s5.32,1.68,5.32,5.72v12.44h4.75v-13.49c0-5.56-3.97-9.45-8.62-9.45Z"/>
          <path class="cls-1" d="m242.66,503.1h-.05c-1.57-2.05-3.97-3.2-6.94-3.2-5.95,0-11.38,4.2-11.38,11.55s5.06,11.39,10.81,11.39c3.29,0,5.58-1.21,7.57-3.46v1.47c0,3.41-2.45,6.61-7.31,6.61-2.3,0-4.33-1.47-5.27-2.78l-3.92,2.89c2.56,3.15,6.31,4.41,9.39,4.41,6,0,11.64-4.25,11.64-11.65v-19.84h-4.54v2.63Zm-6.58,15.22c-4.07,0-6.73-3.1-6.73-6.98s2.98-6.93,6.73-6.93,6.58,3.1,6.58,6.98-2.71,6.93-6.58,6.93Z"/>
          <path class="cls-1" d="m273.39,498.32c3.24,0,6.05,1.52,7.88,4.2l4.39-3.36c-3.18-4.04-7.67-5.93-12.27-5.93-8.67,0-15.51,6.61-15.51,15.11s6.84,15.06,15.51,15.06c4.59,0,9.08-1.89,12.27-5.93l-4.28-3.15c-1.83,2.52-4.75,4.04-7.99,4.04-5.22,0-9.92-4.41-9.92-10.02s4.7-10.02,9.92-10.02Z"/>
          <path class="cls-1" d="m299.28,499.9c-7.73,0-12.27,5.83-12.27,11.76s4.54,11.76,12.27,11.76,12.27-5.83,12.27-11.76-4.49-11.76-12.27-11.76Zm0,19c-4.18,0-7.21-3.2-7.21-7.24s3.03-7.24,7.21-7.24,7.26,3.2,7.26,7.24-3.08,7.24-7.26,7.24Z"/>
          <path class="cls-1" d="m326.31,499.9c-3.03,0-5.48,1.31-6.84,3.41h-.05v-2.84h-4.8v22.36h4.8v-12.49c0-3.67,2.35-5.67,5.43-5.67s5.32,1.68,5.32,5.72v12.44h4.75v-13.49c0-5.56-3.97-9.45-8.62-9.45Z"/>
          <path class="cls-1" d="m351.05,509.92l-4.81-.89c-1.83-.32-2.92-1-2.92-2.36,0-1.78,2.04-2.83,4.12-2.83,1.57,0,3.6.52,5.95,2.52l2.72-3.36c-3.03-2.21-5.74-3.1-8.82-3.1-5.53,0-8.72,3.52-8.72,7.29,0,3.15,1.72,5.2,7.98,6.35l2.71.52c1.72.32,2.87,1.1,2.87,2.57,0,1.26-1.62,2.83-4.38,2.83-2.51,0-5.27-1.47-7-3.31l-3.24,3.36c3.03,2.57,6.21,3.88,9.97,3.88,6.79,0,9.45-4.25,9.45-7.51s-1.93-5.19-5.9-5.98Z"/>
          <path class="cls-1" d="m375.06,513.02c0,3.25-2.4,5.62-5.38,5.62s-5.38-2.36-5.38-5.62v-12.54h-4.8v12.91c0,6.3,4.86,10.02,10.18,10.02s10.13-3.73,10.13-10.02v-12.91h-4.75v12.54Z"/>
          <path class="cls-1" d="m389.36,513.81v-20h-4.75v20.89c0,4.67,2.3,6.4,7.2,8.71l2.09-3.78-2.56-1.47c-1.41-.84-1.98-1.73-1.98-4.36Z"/>
          <path class="cls-1" d="m400.58,513.81v-8.82h3.81v-4.51h-3.81v-7.24l-4.81,1.31v5.93h-2.71v4.51h2.71v9.71c0,4.67,2.3,6.4,7.21,8.71l2.14-3.78-2.56-1.47c-1.46-.84-1.98-1.94-1.98-4.36Z"/>
          <path class="cls-1" d="m424.59,503.21h-.1c-1.25-1.89-3.76-3.31-7.05-3.31-7.21,0-11.8,6.25-11.8,11.76s4.23,11.76,11.54,11.76c3.03,0,5.79-1.26,7.31-3.31h.1v2.73h4.75v-22.36h-4.75v2.73Zm-6.79,15.69c-3.86,0-7.1-3.2-7.1-7.24s3.24-7.24,7.1-7.24,6.94,3.2,6.94,7.24-3.18,7.24-6.94,7.24Z"/>
          <path class="cls-1" d="m445.78,499.9c-3.03,0-5.48,1.31-6.84,3.41h-.05v-2.84h-4.8v22.36h4.8v-12.49c0-3.67,2.35-5.67,5.43-5.67s5.33,1.68,5.33,5.72v12.44h4.75v-13.49c0-5.56-3.97-9.45-8.61-9.45Z"/>
          <path class="cls-1" d="m469.68,504.41c2.71,0,4.54,1.37,5.79,3.36l4.17-2.47c-2.14-3.15-5.22-5.4-9.97-5.4-7.73,0-12.27,5.83-12.27,11.75s4.54,11.76,12.27,11.76c4.23,0,7.99-2.26,9.97-5.41l-4.17-2.47c-1.25,2.05-3.13,3.36-5.79,3.36-4.18,0-7.21-3.2-7.21-7.24s3.03-7.24,7.21-7.24Z"/>
          <path class="cls-1" d="m489.88,518.16c-1.46-.84-1.98-1.94-1.98-4.36v-8.82h3.81v-4.51h-3.81v-7.24l-4.8,1.31v5.93h-2.71v4.51h2.71v9.71c0,4.67,2.3,6.4,7.2,8.71l2.14-3.78-2.56-1.47Z"/>
        </g>
        <g>
          <path class="cls-1" d="m18.21,478.67c1.39.93,2.61,1.57,3.77,1.8,1.04.17,3.48.29,7.13.29h104.16v-24.13h-5.45v18.68h-5.98v-18.68h-5.4v18.68h-6.21v-18.68h-5.45v18.68h-31.55v-18.68h-5.45v18.68h-33.92v-18.68h-4.64c-1.74,0-3.31,0-4.99.06-2.72.06-5.22,1.16-7.36,3.25-2.44,2.38-3.66,5.22-3.66,8.58,0,4.41,1.68,7.77,4.99,10.15Zm2.49-14.73c1.28-1.22,3.02-1.86,5.22-1.86h2.55v13.23h-2.44c-1.68,0-2.96-.17-3.71-.52-2.44-1.16-3.6-3.19-3.6-6.09,0-1.97.58-3.54,1.97-4.76Z"/>
          <path class="cls-1" d="m27.26,451.23c.87,0,1.62-.35,2.26-.99.64-.58.99-1.33.99-2.14,0-.93-.35-1.63-.99-2.21-.64-.52-1.39-.87-2.32-.87-.87,0-1.62.35-2.26.99-.64.52-.93,1.28-.93,2.09s.29,1.57.93,2.14c.64.64,1.39.99,2.32.99Z"/>
          <path class="cls-1" d="m19.66,451.23c.93,0,1.74-.35,2.38-.99.58-.58.87-1.33.87-2.14,0-.93-.29-1.63-.93-2.21-.64-.52-1.45-.87-2.32-.87s-1.68.35-2.32.87c-.63.58-.93,1.28-.93,2.21,0,.81.29,1.57.93,2.14.64.64,1.45.99,2.32.99Z"/>
          <path class="cls-1" d="m57.73,482.7c-.87,0-1.62.35-2.2.93-.64.58-.99,1.27-.99,2.14,0,.81.35,1.63.99,2.15.64.64,1.39.99,2.26.99.93,0,1.68-.35,2.32-.99.64-.52.93-1.33.93-2.15,0-.87-.29-1.57-.93-2.14-.64-.58-1.39-.93-2.38-.93Z"/>
          <path class="cls-1" d="m53.44,485.77c0-.87-.29-1.57-.93-2.15-.64-.58-1.39-.93-2.38-.93-.81,0-1.57.35-2.2.93-.64.58-.99,1.28-.99,2.15,0,.81.35,1.63.99,2.15.64.64,1.39.98,2.26.98.93,0,1.68-.35,2.32-.98.64-.52.93-1.33.93-2.15Z"/>
          <path class="cls-1" d="m169.05,451.23c.87,0,1.63-.35,2.26-.93.64-.64.99-1.39.99-2.2s-.35-1.63-.99-2.21c-.64-.52-1.39-.87-2.32-.87-.87,0-1.62.35-2.26.99-.64.52-.93,1.28-.93,2.09s.29,1.57.93,2.2c.64.58,1.39.93,2.32.93Z"/>
          <path class="cls-1" d="m160.65,480.76h22.09c.81,0,1.45-.17,1.97-.64.52.46,1.22.64,1.97.64h27.37v-35.73h-5.45v30.28h-6.37v-6.44c0-4.29-1.62-7.71-4.99-10.03-1.39-1.04-2.78-1.68-4.23-1.91-.93-.23-2.44-.29-4.7-.29h-10.38v5.45h11.37c2.03,0,3.71.35,4.87,1.22,1.74,1.28,2.67,3.6,2.67,7.08v4.93h-5.69c.29-.81.41-1.63.41-2.38,0-1.97-.64-3.65-1.97-4.99-1.33-1.34-2.9-2.03-4.81-2.03s-3.6.7-4.93,2.09c-1.33,1.39-1.97,3.13-1.97,5.16,0,.81.18,1.62.58,2.15h-6.61v-18.68h-5.39v18.68h-8.75c1.33-2.38,1.97-4.59,1.97-6.55,0-3.48-1.28-6.44-3.83-8.88-2.32-2.15-5.63-3.25-9.92-3.25h-5.57v5.45h6.67c2.09,0,3.77.64,5.11,1.85,1.33,1.22,1.97,2.78,1.97,4.76,0,2.38-.93,4.18-2.67,5.51-1.1.76-2.67,1.1-4.87,1.1h-9.8v5.45h23.9Zm22.15-9.98c.58-.58,1.22-.81,1.97-.81.7,0,1.33.23,1.91.81.58.52.81,1.16.81,1.91,0,.81-.23,1.45-.81,1.97-.58.58-1.22.87-1.91.87-.75,0-1.39-.29-1.97-.76-.58-.58-.87-1.22-.87-2.09,0-.76.29-1.39.87-1.91Z"/>
          <rect class="cls-1" x="217.54" y="445.03" width="5.39" height="35.73"/>
          <path class="cls-1" d="m256.16,451.23c.87,0,1.68-.35,2.32-.99.63-.58.93-1.33.93-2.14s-.29-1.57-.93-2.09c-.76-.64-1.51-.99-2.38-.99-.93,0-1.68.35-2.32.87-.58.58-.87,1.28-.87,2.21,0,.81.29,1.57.87,2.14.64.64,1.39.99,2.38.99Z"/>
          <path class="cls-1" d="m281.11,456.63h-5.4v18.68h-24.94c-2.09,0-3.54-.06-4.35-.23-1.57-.41-2.78-1.22-3.6-2.44-.76-1.04-1.16-2.73-1.16-4.82v-6.21h-5.4v5.22c0,2.26.06,3.77.23,4.7.23,1.45.93,2.9,1.85,4.24,2.44,3.31,5.8,4.99,10.15,4.99h32.6v-24.13Z"/>
          <path class="cls-1" d="m263.7,451.23c.87,0,1.62-.35,2.26-.99.64-.58.99-1.33.99-2.14,0-.93-.35-1.63-.99-2.21-.64-.52-1.39-.87-2.32-.87-.87,0-1.63.35-2.27.99-.63.52-.93,1.28-.93,2.09s.29,1.57.93,2.14c.64.64,1.39.99,2.32.99Z"/>
          <rect class="cls-1" x="285.66" y="445.03" width="5.4" height="35.73"/>
          <path class="cls-1" d="m289.97,493.75c1.97-.29,3.94-1.1,6.03-2.44,2.03-1.33,3.65-2.9,4.64-4.58,1.51-2.32,2.2-4.99,2.2-8.01v-22.1h-5.45v18.91c0,4.7-.98,8.06-3.02,10.03-.98.99-2.44,1.92-4.41,2.73v5.45Z"/>
          <path class="cls-1" d="m356.67,451.23c.93,0,1.68-.35,2.32-.99.64-.58.93-1.33.93-2.14,0-.93-.29-1.63-.93-2.21-.64-.52-1.39-.87-2.38-.87-.81,0-1.57.35-2.2.99-.64.52-.99,1.28-.99,2.09s.35,1.57.99,2.14c.64.64,1.39.99,2.26.99Z"/>
          <path class="cls-1" d="m361.02,448.1c0,.81.35,1.57.99,2.15.64.64,1.39.98,2.26.98.93,0,1.68-.35,2.32-.98.64-.58.93-1.33.93-2.15,0-.93-.29-1.63-.93-2.2-.64-.52-1.39-.87-2.38-.87-.87,0-1.68.35-2.2.87-.64.58-.99,1.27-.99,2.2Z"/>
          <path class="cls-1" d="m360.5,444.56c.76,0,1.39-.23,1.97-.75.58-.58.87-1.22.87-1.91,0-.75-.29-1.39-.87-1.91-.58-.52-1.22-.75-2.03-.75-.76,0-1.39.23-1.97.75-.52.52-.76,1.16-.76,1.91,0,.7.23,1.33.81,1.91.58.52,1.22.75,1.97.75Z"/>
          <polygon class="cls-1" points="375.12 480.76 395.52 480.76 395.76 480.76 414.08 480.76 414.43 480.76 453 480.76 453 456.63 447.55 456.63 447.55 475.31 441.57 475.31 441.57 456.63 436.18 456.63 436.18 475.31 429.97 475.31 429.97 456.63 424.52 456.63 424.52 475.31 414.43 475.31 414.08 475.31 413.79 475.31 413.79 456.63 408.34 456.63 408.34 475.31 395.76 475.31 395.52 475.31 375.12 475.31 374.7 475.31 374.42 475.31 374.42 456.63 368.97 456.63 368.97 475.31 362.99 475.31 362.99 456.63 357.6 456.63 357.6 475.31 351.39 475.31 351.39 456.63 345.94 456.63 345.94 475.31 335.73 475.31 335.5 475.31 315.02 475.31 314.68 475.31 314.39 475.31 314.39 445.03 308.99 445.03 308.99 480.76 314.68 480.76 315.02 480.76 335.5 480.76 335.73 480.76 374.7 480.76 375.12 480.76"/>
          <path class="cls-1" d="m403.47,451.23c.93,0,1.68-.35,2.32-.99.64-.58.98-1.33.98-2.14,0-.93-.35-1.63-.98-2.21-.64-.52-1.39-.87-2.38-.87-.87,0-1.62.35-2.2.87-.64.58-.99,1.28-.99,2.21,0,.81.35,1.57.99,2.14.63.64,1.39.99,2.26.99Z"/>
          <path class="cls-1" d="m411.07,451.23c.93,0,1.68-.35,2.32-.99.64-.58.93-1.33.93-2.14s-.29-1.57-.93-2.09c-.7-.64-1.45-.99-2.38-.99-.87,0-1.62.35-2.2.87-.64.58-.99,1.28-.99,2.21,0,.81.35,1.57.99,2.14.58.64,1.39.99,2.26.99Z"/>
          <polygon class="cls-1" points="491.21 445.03 485.76 445.03 485.76 475.31 480.14 475.31 479.79 475.31 479.5 475.31 479.5 445.03 473.99 445.03 473.99 475.31 467.9 475.31 467.9 456.63 462.45 456.63 462.45 475.31 456.47 475.31 456.47 480.76 479.79 480.76 480.14 480.76 491.21 480.76 491.21 445.03"/>
        </g>
      </g>
      <g>
        <path class="cls-1" d="m74.37,426.24H14.28v-152.43h60.09c42.03,0,76.22,34.19,76.22,76.22s-34.19,76.22-76.22,76.22Zm-30.53-29.56h30.53c25.72,0,46.65-20.93,46.65-46.65s-20.93-46.65-46.65-46.65h-30.53v93.3Z"/>
        <polygon class="cls-1" points="317.52 273.81 248.57 347.61 180.47 273.81 164.55 273.81 164.55 426.24 193.49 426.24 193.49 334.95 248.45 394.5 304.38 334.62 304.38 426.24 333.32 426.24 333.32 273.81 317.52 273.81"/>
      </g>
      <path class="cls-1" d="m501.32,376.87l-29.82-12.29c-2.3,5.58-5.64,10.59-9.95,14.9-8.62,8.62-20.08,13.36-32.27,13.36-25.17,0-45.64-20.47-45.64-45.64s20.47-45.64,45.64-45.64c13.62,0,26.42,6.02,35.13,16.51l24.81-20.6c-14.86-17.89-36.71-28.15-59.95-28.15-42.95,0-77.89,34.94-77.89,77.89s34.94,77.89,77.89,77.89c20.81,0,40.37-8.1,55.07-22.81h0c7.33-7.33,13.03-15.88,16.96-25.41Z"/>
    </g>
    <path class="cls-1" d="m767.7,287.11v225.78h-225.78v-225.78h225.78m19.08-19.08h-263.93v263.93h263.93v-263.93h0Z"/>
  </g>
  <g>
    <g>
      <rect class="cls-1" x="709.16" y="391.5" width="6.21" height="6.21"/>
      <path class="cls-1" d="m612.87,422.38c2.19,4.71,3.97,9.86,5.28,15.08-1.07-5.33-2.86-10.39-5.28-15.08Z"/>
      <path class="cls-1" d="m618.21,437.73c.03.11.05.22.07.33-.02-.11-.05-.22-.07-.33Z"/>
      <polygon class="cls-1" points="611.41 382.66 611.41 388.23 611.41 390.23 631.26 390.23 631.26 388.23 631.26 382.66 631.26 380.66 611.41 380.66 611.41 382.66"/>
      <path class="cls-1" d="m749.37,472.85c-4.12,0-7.47,3.35-7.47,7.48s3.35,7.47,7.47,7.47,7.47-3.35,7.47-7.48-3.35-7.47-7.47-7.47Z"/>
      <path class="cls-1" d="m728.74,378.04v-37.68h-40.39c-8.55-16.75-25.91-28.24-45.89-28.24-28.42,0-51.55,23.25-51.55,51.83v19.26c-9.11-4.16-19.21-6.49-29.86-6.49h-6.89l-1.38,110.99,13.95.17,1.21-96.81c8.33.98,16.1,3.78,22.98,7.91v88.81h28.39s13.95,0,13.95,0h0v-38.88c0-23.69-11.48-44.76-29.16-57.93v-27.04c0-21.28,17.21-38.58,38.37-38.58,12.33,0,23.32,5.88,30.34,14.99h-20.96v147.09h42.16v-123.5c0-3.54-.35-7-1.03-10.34h22.59v24.43h-18.11v33.13h31.28v-19.88h14.22v77.02h13.18v-90.27h-27.4Zm-115.87,44.34c2.42,4.7,4.21,9.76,5.28,15.08.02.09.04.17.06.26.02.11.05.22.07.33.67,3.52,1.02,7.15,1.02,10.87v25.63h-15.21v-64.81c3.46,3.79,6.41,8.04,8.78,12.65Zm67.96,51.82h-15.81v-120.59h14.41c.91,3.29,1.4,6.76,1.4,10.34v110.25Zm37.38-73.64h-11.9v-11.9h11.9v11.9Z"/>
    </g>
    <rect class="cls-1" x="660.24" y="363.63" width="25.67" height="6.05"/>
    <rect class="cls-1" x="660.24" y="376.77" width="25.67" height="6.04"/>
    <rect class="cls-1" x="660.24" y="389.9" width="25.67" height="6.04"/>
    <rect class="cls-1" x="660.24" y="403.03" width="25.67" height="6.04"/>
    <rect class="cls-1" x="660.24" y="422.09" width="25.67" height="6.04"/>
    <rect class="cls-1" x="660.24" y="435.22" width="25.67" height="6.04"/>
    <rect class="cls-1" x="660.24" y="448.35" width="25.67" height="6.05"/>
    <rect class="cls-1" x="660.24" y="461.48" width="25.67" height="6.04"/>
    <rect class="cls-1" x="600.7" y="422.09" width="23.52" height="6.04"/>
    <rect class="cls-1" x="600.7" y="435.22" width="23.52" height="6.04"/>
    <rect class="cls-1" x="600.7" y="448.35" width="23.52" height="6.05"/>
    <rect class="cls-1" x="600.7" y="461.48" width="23.52" height="6.04"/>
  </g>
</svg>