<?xml version="1.0" encoding="UTF-8"?>
<svg id="Layer_1" data-name="Layer 1" xmlns="http://www.w3.org/2000/svg" viewBox="0 0 800 800">
  <defs>
    <style>
      .cls-1 {
        fill: #b7957a;
      }

      .cls-1, .cls-2, .cls-3, .cls-4 {
        stroke-width: 0px;
      }

      .cls-2 {
        fill: #b8967a;
      }

      .cls-3 {
        fill: #404041;
      }

      .cls-4 {
        fill: #001e41;
      }
    </style>
  </defs>
  <g>
    <g>
      <g>
        <path class="cls-3" d="m215.55,743.18c-1.71,0-3.01,1.36-3.01,3.03s1.3,3.03,3.01,3.03,3.01-1.37,3.01-3.03-1.36-3.03-3.01-3.03Z"/>
        <path class="cls-3" d="m328.2,743.18c-1.71,0-3.01,1.36-3.01,3.03s1.3,3.03,3.01,3.03,3.01-1.37,3.01-3.03-1.36-3.03-3.01-3.03Z"/>
        <polygon class="cls-3" points="126.02 776.71 151.05 776.71 151.05 770.95 132.05 770.95 132.05 762.76 145.33 762.76 145.33 757 132.05 757 132.05 749.65 151.05 749.65 151.05 743.89 126.02 743.89 126.02 776.71"/>
        <path class="cls-3" d="m168.34,750.77c-3.42,0-6.2,1.48-7.73,3.86h-.06v-3.21h-5.43v25.28h5.43v-14.12c0-4.15,2.66-6.41,6.14-6.41s6.02,1.9,6.02,6.47v14.07h5.37v-15.25c0-6.29-4.49-10.68-9.74-10.68Z"/>
        <path class="cls-3" d="m202.27,754.4h-.06c-1.77-2.32-4.49-3.62-7.85-3.62-6.73,0-12.87,4.75-12.87,13.06s5.73,12.88,12.22,12.88c3.72,0,6.32-1.36,8.56-3.91v1.66c0,3.86-2.78,7.48-8.26,7.48-2.6,0-4.9-1.66-5.96-3.14l-4.43,3.26c2.89,3.56,7.14,4.98,10.62,4.98,6.79,0,13.16-4.81,13.16-13.18v-22.43h-5.13v2.97Zm-7.44,17.21c-4.6,0-7.61-3.5-7.61-7.89s3.36-7.83,7.61-7.83,7.44,3.5,7.44,7.89-3.07,7.83-7.44,7.83Z"/>
        <rect class="cls-3" x="212.83" y="751.43" width="5.37" height="25.28"/>
        <path class="cls-3" d="m236.85,750.77c-3.42,0-6.2,1.48-7.73,3.86h-.06v-3.21h-5.43v25.28h5.43v-14.12c0-4.15,2.66-6.41,6.14-6.41s6.02,1.9,6.02,6.47v14.07h5.37v-15.25c0-6.29-4.49-10.68-9.74-10.68Z"/>
        <path class="cls-3" d="m264.29,750.77c-8.74,0-13.87,6.59-13.87,13.29s5.13,13.29,13.87,13.29c4.55,0,8.68-2.31,11.69-6.11l-4.55-2.61c-1.89,2.55-4.37,3.91-7.26,3.91-3.78,0-7.38-2.73-7.67-6.59h20.84v-1.01c0-9.85-7.79-14.18-13.05-14.18Zm-7.79,10.68c.83-3.74,3.66-5.88,7.09-5.88s6.31,2.02,7.44,5.88h-14.52Z"/>
        <path class="cls-3" d="m293.62,750.77c-8.74,0-13.87,6.59-13.87,13.29s5.13,13.29,13.87,13.29c4.55,0,8.68-2.31,11.69-6.11l-4.55-2.61c-1.89,2.55-4.37,3.91-7.26,3.91-3.78,0-7.38-2.73-7.67-6.59h20.84v-1.01c0-9.85-7.79-14.18-13.05-14.18Zm-7.79,10.68c.83-3.74,3.66-5.88,7.09-5.88s6.31,2.02,7.44,5.88h-14.52Z"/>
        <path class="cls-3" d="m315.75,754.22h-.12v-2.79h-5.08v25.28h5.43v-16.73c0-2.25,1.77-3.8,3.72-3.8.53,0,1.48.3,2.01.71l1.95-5.34c-.71-.47-1.77-.77-2.95-.77-2.18,0-4.07,1.36-4.96,3.44Z"/>
        <rect class="cls-3" x="325.48" y="751.43" width="5.37" height="25.28"/>
        <path class="cls-3" d="m349.51,750.77c-3.42,0-6.2,1.48-7.73,3.86h-.06v-3.21h-5.43v25.28h5.43v-14.12c0-4.15,2.66-6.41,6.14-6.41s6.02,1.9,6.02,6.47v14.07h5.37v-15.25c0-6.29-4.49-10.68-9.74-10.68Z"/>
        <path class="cls-3" d="m383.44,754.4h-.06c-1.77-2.32-4.49-3.62-7.85-3.62-6.73,0-12.87,4.75-12.87,13.06s5.73,12.88,12.22,12.88c3.72,0,6.31-1.36,8.56-3.91v1.66c0,3.86-2.78,7.48-8.26,7.48-2.6,0-4.9-1.66-5.96-3.14l-4.43,3.26c2.89,3.56,7.14,4.98,10.62,4.98,6.79,0,13.16-4.81,13.16-13.18v-22.43h-5.13v2.97Zm-7.44,17.21c-4.6,0-7.61-3.5-7.61-7.89s3.36-7.83,7.61-7.83,7.44,3.5,7.44,7.89-3.07,7.83-7.44,7.83Z"/>
        <path class="cls-3" d="m418.2,748.99c3.66,0,6.85,1.72,8.91,4.75l4.96-3.8c-3.6-4.57-8.68-6.7-13.87-6.7-9.8,0-17.53,7.48-17.53,17.09s7.73,17.03,17.53,17.03c5.19,0,10.27-2.14,13.87-6.71l-4.84-3.56c-2.07,2.85-5.37,4.57-9.03,4.57-5.9,0-11.22-4.99-11.22-11.33s5.31-11.33,11.22-11.33Z"/>
        <path class="cls-3" d="m447.47,750.77c-8.74,0-13.87,6.59-13.87,13.29s5.13,13.29,13.87,13.29,13.87-6.59,13.87-13.29-5.08-13.29-13.87-13.29Zm0,21.48c-4.72,0-8.15-3.62-8.15-8.19s3.43-8.19,8.15-8.19,8.2,3.62,8.2,8.19-3.48,8.19-8.2,8.19Z"/>
        <path class="cls-3" d="m478.03,750.77c-3.42,0-6.2,1.48-7.73,3.86h-.06v-3.21h-5.43v25.28h5.43v-14.12c0-4.15,2.66-6.41,6.14-6.41s6.02,1.9,6.02,6.47v14.07h5.37v-15.25c0-6.29-4.49-10.68-9.74-10.68Z"/>
        <path class="cls-3" d="m506.01,762.11l-5.43-1.01c-2.06-.36-3.3-1.13-3.3-2.67,0-2.02,2.3-3.2,4.66-3.2,1.77,0,4.08.59,6.73,2.85l3.07-3.8c-3.43-2.49-6.49-3.5-9.98-3.5-6.26,0-9.86,3.98-9.86,8.25,0,3.56,1.95,5.88,9.03,7.18l3.07.59c1.95.36,3.25,1.25,3.25,2.91,0,1.42-1.83,3.2-4.95,3.2-2.83,0-5.96-1.66-7.91-3.74l-3.66,3.8c3.42,2.91,7.03,4.39,11.27,4.39,7.67,0,10.69-4.81,10.69-8.49s-2.18-5.87-6.67-6.76Z"/>
        <path class="cls-3" d="m533.15,765.61c0,3.68-2.72,6.35-6.08,6.35s-6.08-2.67-6.08-6.35v-14.18h-5.43v14.6c0,7.12,5.49,11.33,11.51,11.33s11.45-4.21,11.45-11.33v-14.6h-5.37v14.18Z"/>
        <path class="cls-3" d="m549.32,766.5v-22.61h-5.37v23.62c0,5.28,2.6,7.24,8.14,9.85l2.36-4.27-2.89-1.66c-1.6-.95-2.24-1.96-2.24-4.93Z"/>
        <path class="cls-3" d="m562.01,766.5v-9.97h4.31v-5.1h-4.31v-8.19l-5.43,1.48v6.7h-3.07v5.1h3.07v10.98c0,5.28,2.6,7.24,8.15,9.85l2.42-4.27-2.89-1.66c-1.65-.95-2.24-2.19-2.24-4.93Z"/>
        <path class="cls-3" d="m589.15,754.51h-.12c-1.42-2.14-4.25-3.74-7.97-3.74-8.15,0-13.34,7.06-13.34,13.29s4.78,13.29,13.05,13.29c3.42,0,6.55-1.43,8.26-3.74h.12v3.08h5.37v-25.28h-5.37v3.09Zm-7.67,17.74c-4.37,0-8.03-3.62-8.03-8.19s3.66-8.19,8.03-8.19,7.85,3.62,7.85,8.19-3.6,8.19-7.85,8.19Z"/>
        <path class="cls-3" d="m613.11,750.77c-3.42,0-6.2,1.48-7.73,3.86h-.06v-3.21h-5.43v25.28h5.43v-14.12c0-4.15,2.66-6.41,6.14-6.41s6.02,1.9,6.02,6.47v14.07h5.37v-15.25c0-6.29-4.49-10.68-9.74-10.68Z"/>
        <path class="cls-3" d="m640.14,755.88c3.07,0,5.13,1.54,6.55,3.8l4.72-2.79c-2.42-3.56-5.9-6.11-11.27-6.11-8.74,0-13.87,6.59-13.87,13.29s5.13,13.29,13.87,13.29c4.78,0,9.03-2.55,11.27-6.11l-4.72-2.79c-1.42,2.32-3.54,3.8-6.55,3.8-4.72,0-8.15-3.62-8.15-8.19s3.43-8.19,8.15-8.19Z"/>
        <path class="cls-3" d="m662.98,771.43c-1.65-.95-2.24-2.19-2.24-4.93v-9.97h4.31v-5.1h-4.31v-8.19l-5.43,1.48v6.7h-3.07v5.1h3.07v10.98c0,5.28,2.6,7.24,8.14,9.85l2.42-4.27-2.89-1.66Z"/>
      </g>
      <g>
        <path class="cls-3" d="m129.66,726.77c1.57,1.05,2.95,1.77,4.26,2.04,1.18.19,3.94.33,8.07.33h117.78v-27.29h-6.17v21.12h-6.76v-21.12h-6.1v21.12h-7.02v-21.12h-6.17v21.12h-35.67v-21.12h-6.17v21.12h-38.36v-21.12h-5.25c-1.97,0-3.74,0-5.64.06-3.08.06-5.9,1.31-8.33,3.67-2.76,2.69-4.13,5.9-4.13,9.71,0,4.99,1.9,8.79,5.64,11.48Zm2.82-16.66c1.44-1.38,3.41-2.1,5.9-2.1h2.89v14.96h-2.75c-1.9,0-3.35-.2-4.2-.59-2.76-1.31-4.07-3.61-4.07-6.89,0-2.23.66-4,2.23-5.38Z"/>
        <path class="cls-3" d="m139.89,695.75c.98,0,1.84-.39,2.56-1.12.72-.65,1.12-1.51,1.12-2.42,0-1.05-.4-1.84-1.12-2.49-.72-.59-1.57-.98-2.62-.98-.98,0-1.84.39-2.56,1.12-.72.59-1.05,1.44-1.05,2.36s.33,1.77,1.05,2.42c.72.72,1.58,1.12,2.63,1.12Z"/>
        <path class="cls-3" d="m131.3,695.75c1.05,0,1.97-.39,2.69-1.12.66-.65.98-1.51.98-2.42,0-1.05-.33-1.84-1.05-2.49-.72-.59-1.64-.98-2.62-.98s-1.9.39-2.63.98c-.72.66-1.05,1.44-1.05,2.49,0,.92.33,1.77,1.05,2.42.72.72,1.64,1.12,2.63,1.12Z"/>
        <path class="cls-3" d="m174.34,731.33c-.98,0-1.84.39-2.49,1.05-.72.65-1.12,1.44-1.12,2.42,0,.92.4,1.84,1.12,2.43.72.72,1.57,1.12,2.56,1.12,1.05,0,1.9-.39,2.63-1.12.72-.59,1.05-1.51,1.05-2.43,0-.98-.33-1.77-1.05-2.42-.72-.66-1.58-1.05-2.69-1.05Z"/>
        <path class="cls-3" d="m169.49,734.8c0-.98-.33-1.77-1.05-2.43-.72-.65-1.57-1.05-2.69-1.05-.92,0-1.77.39-2.49,1.05-.72.66-1.12,1.44-1.12,2.43,0,.92.39,1.84,1.12,2.43.72.72,1.57,1.11,2.56,1.11,1.05,0,1.9-.39,2.62-1.11.72-.59,1.05-1.51,1.05-2.43Z"/>
        <path class="cls-3" d="m300.22,695.75c.98,0,1.84-.39,2.56-1.05.72-.72,1.12-1.57,1.12-2.49s-.39-1.84-1.12-2.49c-.72-.59-1.57-.98-2.62-.98-.98,0-1.84.39-2.56,1.12-.72.59-1.05,1.44-1.05,2.36s.33,1.77,1.05,2.49c.72.66,1.58,1.05,2.62,1.05Z"/>
        <path class="cls-3" d="m290.71,729.13h24.98c.92,0,1.64-.2,2.23-.72.59.52,1.38.72,2.23.72h30.95v-40.41h-6.17v34.24h-7.21v-7.28c0-4.85-1.84-8.72-5.64-11.35-1.57-1.18-3.15-1.9-4.79-2.16-1.05-.26-2.76-.33-5.31-.33h-11.74v6.17h12.86c2.29,0,4.2.39,5.51,1.38,1.97,1.44,3.02,4.07,3.02,8v5.58h-6.43c.33-.92.46-1.84.46-2.69,0-2.23-.72-4.13-2.23-5.64-1.51-1.51-3.28-2.3-5.44-2.3s-4.07.79-5.58,2.36c-1.51,1.57-2.23,3.54-2.23,5.84,0,.92.2,1.84.66,2.43h-7.47v-21.12h-6.1v21.12h-9.9c1.51-2.69,2.23-5.18,2.23-7.41,0-3.94-1.44-7.28-4.33-10.04-2.62-2.43-6.36-3.67-11.21-3.67h-6.3v6.17h7.54c2.36,0,4.27.72,5.77,2.1,1.51,1.38,2.23,3.15,2.23,5.38,0,2.69-1.05,4.72-3.02,6.23-1.25.85-3.02,1.25-5.51,1.25h-11.09v6.17h27.02Zm25.05-11.28c.66-.66,1.38-.92,2.23-.92.79,0,1.51.26,2.16.92.65.59.92,1.31.92,2.17,0,.92-.27,1.64-.92,2.23-.66.66-1.38.99-2.16.99-.85,0-1.57-.33-2.23-.85-.66-.66-.98-1.38-.98-2.36,0-.85.33-1.58.98-2.17Z"/>
        <rect class="cls-3" x="355.04" y="688.73" width="6.1" height="40.4"/>
        <path class="cls-3" d="m398.71,695.75c.98,0,1.9-.39,2.63-1.12.72-.65,1.05-1.51,1.05-2.42s-.33-1.77-1.05-2.36c-.85-.72-1.71-1.12-2.69-1.12-1.05,0-1.9.39-2.62.98-.65.66-.98,1.44-.98,2.49,0,.92.33,1.77.98,2.42.72.72,1.57,1.12,2.69,1.12Z"/>
        <path class="cls-3" d="m426.92,701.85h-6.1v21.12h-28.2c-2.36,0-4-.06-4.92-.26-1.77-.46-3.15-1.38-4.07-2.75-.85-1.18-1.31-3.08-1.31-5.45v-7.02h-6.1v5.9c0,2.56.07,4.26.27,5.31.26,1.64,1.05,3.28,2.1,4.79,2.75,3.74,6.56,5.64,11.48,5.64h36.86v-27.29Z"/>
        <path class="cls-3" d="m407.24,695.75c.98,0,1.84-.39,2.56-1.12.72-.65,1.12-1.51,1.12-2.42,0-1.05-.39-1.84-1.12-2.49-.72-.59-1.57-.98-2.62-.98-.98,0-1.84.39-2.56,1.12-.72.59-1.05,1.44-1.05,2.36s.33,1.77,1.05,2.42c.72.72,1.58,1.12,2.63,1.12Z"/>
        <rect class="cls-3" x="432.07" y="688.73" width="6.1" height="40.4"/>
        <path class="cls-3" d="m436.94,743.82c2.23-.33,4.46-1.25,6.82-2.75,2.3-1.51,4.13-3.28,5.25-5.18,1.71-2.62,2.49-5.64,2.49-9.05v-24.99h-6.17v21.38c0,5.31-1.11,9.12-3.41,11.34-1.11,1.12-2.75,2.17-4.98,3.08v6.17Z"/>
        <path class="cls-3" d="m512.36,695.75c1.05,0,1.9-.39,2.62-1.12.72-.65,1.05-1.51,1.05-2.42,0-1.05-.33-1.84-1.05-2.49-.72-.59-1.58-.98-2.69-.98-.92,0-1.77.39-2.49,1.12-.72.59-1.12,1.44-1.12,2.36s.4,1.77,1.12,2.42c.72.72,1.57,1.12,2.56,1.12Z"/>
        <path class="cls-3" d="m517.28,692.21c0,.92.39,1.77,1.12,2.43.72.72,1.57,1.11,2.56,1.11,1.05,0,1.9-.39,2.62-1.11.72-.66,1.05-1.51,1.05-2.43,0-1.05-.33-1.84-1.05-2.49-.72-.59-1.58-.98-2.69-.98-.98,0-1.9.39-2.49.98-.72.65-1.12,1.44-1.12,2.49Z"/>
        <path class="cls-3" d="m516.69,688.2c.85,0,1.58-.26,2.23-.85.66-.66.98-1.38.98-2.16,0-.85-.33-1.57-.98-2.17-.65-.59-1.38-.85-2.29-.85-.86,0-1.58.26-2.23.85-.59.59-.85,1.31-.85,2.17,0,.79.26,1.51.92,2.16.65.59,1.38.85,2.23.85Z"/>
        <polygon class="cls-3" points="533.21 729.13 556.29 729.13 556.55 729.13 577.27 729.13 577.67 729.13 621.28 729.13 621.28 701.85 615.12 701.85 615.12 722.97 608.36 722.97 608.36 701.85 602.26 701.85 602.26 722.97 595.24 722.97 595.24 701.85 589.08 701.85 589.08 722.97 577.67 722.97 577.27 722.97 576.95 722.97 576.95 701.85 570.78 701.85 570.78 722.97 556.55 722.97 556.29 722.97 533.21 722.97 532.74 722.97 532.43 722.97 532.43 701.85 526.26 701.85 526.26 722.97 519.5 722.97 519.5 701.85 513.4 701.85 513.4 722.97 506.39 722.97 506.39 701.85 500.22 701.85 500.22 722.97 488.68 722.97 488.42 722.97 465.27 722.97 464.88 722.97 464.55 722.97 464.55 688.73 458.45 688.73 458.45 729.13 464.88 729.13 465.27 729.13 488.42 729.13 488.68 729.13 532.74 729.13 533.21 729.13"/>
        <path class="cls-3" d="m565.27,695.75c1.05,0,1.9-.39,2.62-1.12.72-.65,1.11-1.51,1.11-2.42,0-1.05-.39-1.84-1.11-2.49-.72-.59-1.58-.98-2.69-.98-.98,0-1.84.39-2.49.98-.73.66-1.12,1.44-1.12,2.49,0,.92.39,1.77,1.12,2.42.72.72,1.57,1.12,2.56,1.12Z"/>
        <path class="cls-3" d="m573.86,695.75c1.05,0,1.9-.39,2.62-1.12.72-.65,1.05-1.51,1.05-2.42s-.33-1.77-1.05-2.36c-.79-.72-1.64-1.12-2.69-1.12-.98,0-1.84.39-2.49.98-.72.66-1.11,1.44-1.11,2.49,0,.92.39,1.77,1.11,2.42.65.72,1.57,1.12,2.56,1.12Z"/>
        <polygon class="cls-3" points="664.49 688.73 658.32 688.73 658.32 722.97 651.96 722.97 651.57 722.97 651.24 722.97 651.24 688.73 645.01 688.73 645.01 722.97 638.13 722.97 638.13 701.85 631.96 701.85 631.96 722.97 625.2 722.97 625.2 729.13 651.57 729.13 651.96 729.13 664.49 729.13 664.49 688.73"/>
      </g>
    </g>
    <g>
      <path class="cls-4" d="m193.16,667.49h-67.95v-172.36h67.95c47.52,0,86.18,38.66,86.18,86.18s-38.66,86.18-86.18,86.18Zm-34.52-33.43h34.52c29.09,0,52.75-23.66,52.75-52.75s-23.66-52.75-52.75-52.75h-34.52v105.5Z"/>
      <polygon class="cls-4" points="468.09 495.13 390.13 578.58 313.12 495.13 295.13 495.13 295.13 667.49 327.85 667.49 327.85 564.27 389.99 631.6 453.24 563.9 453.24 667.49 485.96 667.49 485.96 495.13 468.09 495.13"/>
    </g>
    <path class="cls-4" d="m675.91,611.66l-33.72-13.9c-2.6,6.31-6.38,11.98-11.25,16.85-9.75,9.74-22.71,15.11-36.49,15.11-28.46,0-51.6-23.15-51.6-51.6s23.15-51.6,51.6-51.6c15.4,0,29.88,6.8,39.72,18.66l28.06-23.3c-16.8-20.23-41.5-31.84-67.78-31.84-48.56,0-88.07,39.51-88.07,88.07s39.51,88.07,88.07,88.07c23.53,0,45.64-9.16,62.27-25.8h0c8.28-8.29,14.74-17.95,19.18-28.73Z"/>
  </g>
  <g>
    <rect class="cls-2" x="531.55" y="220.21" width="16.18" height="16.18"/>
    <path class="cls-2" d="m280.75,300.66c5.7,12.26,10.35,25.67,13.75,39.28-2.78-13.87-7.46-27.05-13.75-39.28Z"/>
    <path class="cls-2" d="m294.66,340.62c.07.28.13.57.2.85-.05-.29-.14-.56-.2-.85Z"/>
    <polygon class="cls-2" points="276.96 197.19 276.96 211.7 276.96 216.91 328.67 216.91 328.67 211.7 328.67 197.19 328.67 191.99 276.96 191.99 276.96 197.19"/>
    <path class="cls-2" d="m636.3,432.1c-10.74,0-19.47,8.74-19.47,19.47s8.73,19.47,19.47,19.47,19.47-8.74,19.47-19.47-8.73-19.47-19.47-19.47Z"/>
    <path class="cls-2" d="m582.55,185.16v-98.15h-105.19c-22.28-43.64-67.49-73.56-119.53-73.56-74.03,0-134.26,60.57-134.26,135.01v50.18c-23.72-10.82-50.05-16.91-77.78-16.91h-17.94l-3.6,289.09,36.33.46,3.14-252.16c21.7,2.56,41.93,9.85,59.86,20.6v231.33h73.95s36.33,0,36.33,0h0v-101.26c0-61.72-29.89-116.58-75.95-150.89v-70.44c0-55.42,44.83-100.5,99.94-100.5,32.12,0,60.74,15.31,79.04,39.05h-54.59v383.13h109.82V148.45c0-9.22-.92-18.23-2.68-26.94h58.83v63.64h-47.16v86.3h81.48v-51.79h37.04v200.61h34.32v-235.12h-71.36Zm-301.8,115.5c6.29,12.23,10.97,25.41,13.75,39.28.06.23.11.45.16.68.06.29.14.56.2.85,1.74,9.17,2.65,18.63,2.65,28.31v66.75h-39.63v-168.82c9.01,9.88,16.7,20.95,22.87,32.95Zm177.01,134.97h-41.18V121.52h37.53c2.38,8.58,3.65,17.61,3.65,26.94v287.17Zm97.37-191.82h-30.99v-30.99h30.99v30.99Z"/>
  </g>
  <rect class="cls-1" x="404.14" y="147.63" width="66.87" height="15.75"/>
  <rect class="cls-1" x="404.14" y="181.84" width="66.87" height="15.74"/>
  <rect class="cls-1" x="404.14" y="216.04" width="66.87" height="15.75"/>
  <rect class="cls-1" x="404.14" y="250.24" width="66.87" height="15.74"/>
  <rect class="cls-1" x="404.14" y="299.9" width="66.87" height="15.75"/>
  <rect class="cls-1" x="404.14" y="334.1" width="66.87" height="15.75"/>
  <rect class="cls-1" x="404.14" y="368.3" width="66.87" height="15.75"/>
  <rect class="cls-1" x="404.14" y="402.51" width="66.87" height="15.74"/>
  <rect class="cls-1" x="249.04" y="299.9" width="61.27" height="15.75"/>
  <rect class="cls-1" x="249.04" y="334.1" width="61.27" height="15.75"/>
  <rect class="cls-1" x="249.04" y="368.3" width="61.27" height="15.75"/>
  <rect class="cls-1" x="249.04" y="402.51" width="61.27" height="15.74"/>
</svg>